<svg xmlns="http://www.w3.org/2000/svg" width="1880" height="1050" viewBox="0 0 1880 1050" role="img" aria-labelledby="diagram-title diagram-description">
  <title id="diagram-title">Merriv release evidence architecture</title>
  <desc id="diagram-description">Inputs flow through the Merriv evidence kernel into a Model Change Report, release consumers, and four evaluation decisions. The lower lane shows an NVIDIA deployment example.</desc>
  <defs>
    <marker id="arrow" viewBox="0 0 10 10" refX="9" refY="5" markerWidth="9" markerHeight="9" orient="auto">
      <path d="M0 0 L10 5 L0 10 Z" fill="#173B73"/>
    </marker>
    <symbol id="icon-artifact_cube" viewBox="0 0 64 64"><g fill="none" stroke="#173B73" stroke-width="3" stroke-linejoin="round" xmlns="http://www.w3.org/2000/svg"><path d="M32 8l20 12v24L32 56 12 44V20z" /><path d="M12 20l20 12 20-12M32 32v24M22 14l20 12M42 14L22 26" /></g></symbol>
    <symbol id="icon-bar_chart" viewBox="0 0 64 64"><g fill="#173B73" xmlns="http://www.w3.org/2000/svg"><rect x="10" y="34" width="8" height="20" rx="1" /><rect x="23" y="24" width="8" height="30" rx="1" /><rect x="36" y="14" width="8" height="40" rx="1" /><rect x="49" y="28" width="5" height="26" rx="1" /></g></symbol>
    <symbol id="icon-bisect_branch" viewBox="0 0 64 64"><g fill="none" stroke="#173B73" stroke-width="3" stroke-linecap="round" stroke-linejoin="round" xmlns="http://www.w3.org/2000/svg"><circle cx="18" cy="14" r="4" /><circle cx="46" cy="14" r="4" /><circle cx="32" cy="50" r="4" /><path d="M18 18v10c0 6 4 8 14 8M46 18v10c0 6-4 8-14 8M32 36v10" /></g></symbol>
    <symbol id="icon-block" viewBox="0 0 64 64"><g fill="none" stroke="#C94C3F" stroke-width="4" stroke-linecap="round" stroke-linejoin="round" xmlns="http://www.w3.org/2000/svg"><path d="M20 10h24l10 10v24L44 54H20L10 44V20z" /><path d="M24 20v19M30 18v21M36 20v19M42 24v15" /><path d="M20 38c6 0 6 8 14 8 7 0 12-4 14-10" /></g></symbol>
    <symbol id="icon-ci_nodes" viewBox="0 0 64 64"><g fill="none" stroke="#173B73" stroke-width="3" stroke-linecap="round" stroke-linejoin="round" xmlns="http://www.w3.org/2000/svg"><circle cx="18" cy="20" r="6" /><circle cx="46" cy="20" r="6" /><circle cx="32" cy="46" r="6" /><path d="M23 24l6 14M41 24l-6 14M24 20h16" /></g></symbol>
    <symbol id="icon-database" viewBox="0 0 64 64"><g fill="none" stroke="#173B73" stroke-width="3" xmlns="http://www.w3.org/2000/svg"><ellipse cx="32" cy="16" rx="18" ry="7" /><path d="M14 16v12c0 4 8 7 18 7s18-3 18-7V16" /><path d="M14 28v12c0 4 8 7 18 7s18-3 18-7V28" /><path d="M14 40v8c0 4 8 7 18 7s18-3 18-7v-8" /></g></symbol>
    <symbol id="icon-document_mcr" viewBox="0 0 64 64"><g fill="none" stroke="#2F66C7" stroke-width="3" stroke-linejoin="round" xmlns="http://www.w3.org/2000/svg"><path d="M16 8h22l10 10v38H16z" /><path d="M38 8v12h10" /><path d="M22 30h20M22 38h20M22 46h14" /></g></symbol>
    <symbol id="icon-error" viewBox="0 0 64 64"><g fill="none" stroke="#C94C3F" stroke-width="4" stroke-linecap="round" xmlns="http://www.w3.org/2000/svg"><circle cx="32" cy="32" r="22" /><path d="M23 23l18 18M41 23L23 41" /></g></symbol>
    <symbol id="icon-gear" viewBox="0 0 64 64"><g fill="none" stroke="#173B73" stroke-width="3" stroke-linejoin="round" xmlns="http://www.w3.org/2000/svg"><circle cx="32" cy="32" r="9" /><path d="M32 8v7M32 49v7M8 32h7M49 32h7M15 15l5 5M44 44l5 5M49 15l-5 5M20 44l-5 5" /><circle cx="32" cy="32" r="17" /></g></symbol>
    <symbol id="icon-globe" viewBox="0 0 64 64"><g fill="none" stroke="#173B73" stroke-width="3" stroke-linecap="round" xmlns="http://www.w3.org/2000/svg"><circle cx="32" cy="32" r="22" /><path d="M10 32h44M32 10c8 8 8 36 0 44M32 10c-8 8-8 36 0 44" /></g></symbol>
    <symbol id="icon-model_network" viewBox="0 0 64 64"><g fill="none" stroke="#68A63B" stroke-width="3" stroke-linecap="round" stroke-linejoin="round" xmlns="http://www.w3.org/2000/svg"><circle cx="18" cy="16" r="4" /><circle cx="18" cy="32" r="4" /><circle cx="18" cy="48" r="4" /><circle cx="46" cy="12" r="4" /><circle cx="46" cy="26" r="4" /><circle cx="46" cy="40" r="4" /><circle cx="46" cy="54" r="4" /><path d="M22 16L42 12M22 16L42 26M22 32L42 26M22 32L42 40M22 48L42 40M22 48L42 54" /></g></symbol>
    <symbol id="icon-pass" viewBox="0 0 64 64"><g fill="none" stroke="#68A63B" stroke-width="4" stroke-linecap="round" stroke-linejoin="round" xmlns="http://www.w3.org/2000/svg"><circle cx="32" cy="32" r="22" /><path d="M20 33l8 8 16-19" /></g></symbol>
    <symbol id="icon-people" viewBox="0 0 64 64"><g fill="none" stroke="#173B73" stroke-width="3" stroke-linecap="round" xmlns="http://www.w3.org/2000/svg"><circle cx="24" cy="22" r="6" /><circle cx="42" cy="24" r="5" /><path d="M12 50c1-10 7-15 12-15s11 5 12 15M34 39c3-4 7-6 10-6 5 0 9 4 10 12" /></g></symbol>
    <symbol id="icon-play_triangle" viewBox="0 0 64 64"><path d="M20 12l30 20-30 20z" fill="none" stroke="#68A63B" stroke-width="4" stroke-linejoin="round" xmlns="http://www.w3.org/2000/svg" /></symbol>
    <symbol id="icon-scales" viewBox="0 0 64 64"><g fill="none" stroke="#173B73" stroke-width="3" stroke-linecap="round" stroke-linejoin="round" xmlns="http://www.w3.org/2000/svg"><path d="M32 10v40M20 16h24M14 20h12M38 20h12M20 16l-8 16h16zM44 16l-8 16h16zM22 52h20" /></g></symbol>
    <symbol id="icon-shield_check" viewBox="0 0 64 64"><g fill="none" stroke="#173B73" stroke-width="3" stroke-linecap="round" stroke-linejoin="round" xmlns="http://www.w3.org/2000/svg"><path d="M32 8l18 7v14c0 13-8 22-18 27-10-5-18-14-18-27V15z" /><path d="M23 31l6 6 12-13" /></g></symbol>
    <symbol id="icon-sliders" viewBox="0 0 64 64"><g fill="none" stroke="#68A63B" stroke-width="3" stroke-linecap="round" xmlns="http://www.w3.org/2000/svg"><path d="M10 16h44M10 32h44M10 48h44" /><circle cx="24" cy="16" r="4" fill="white" /><circle cx="40" cy="32" r="4" fill="white" /><circle cx="20" cy="48" r="4" fill="white" /></g></symbol>
    <symbol id="icon-speedometer" viewBox="0 0 64 64"><g fill="none" stroke="#173B73" stroke-width="3" stroke-linecap="round" xmlns="http://www.w3.org/2000/svg"><path d="M12 44a22 22 0 1 1 40 0" /><path d="M32 32l12-10" /><circle cx="32" cy="32" r="3" fill="#173B73" stroke="none" /></g></symbol>
    <symbol id="icon-statistics" viewBox="0 0 64 64"><g fill="none" stroke="#173B73" stroke-width="3" xmlns="http://www.w3.org/2000/svg"><rect x="10" y="36" width="8" height="18" /><rect x="24" y="26" width="8" height="28" /><rect x="38" y="16" width="8" height="38" /><path d="M8 54h46" /></g></symbol>
    <symbol id="icon-target" viewBox="0 0 64 64"><g fill="none" stroke="#2F66C7" stroke-width="4" stroke-linecap="round" stroke-linejoin="round" xmlns="http://www.w3.org/2000/svg"><circle cx="28" cy="36" r="20" /><circle cx="28" cy="36" r="12" /><circle cx="28" cy="36" r="4" /><path d="M40 24L54 10M45 10h9v9" /></g></symbol>
    <symbol id="icon-warn" viewBox="0 0 64 64"><g fill="none" stroke="#E59A3A" stroke-width="4" stroke-linecap="round" stroke-linejoin="round" xmlns="http://www.w3.org/2000/svg"><path d="M32 10l24 42H8z" /><path d="M32 24v13" /><circle cx="32" cy="45" r="2" fill="#E59A3A" stroke="none" /></g></symbol>
    <symbol id="icon-waveform" viewBox="0 0 64 64"><path d="M6 34h12l5-20 8 38 7-30 5 12h15" fill="none" stroke="#173B73" stroke-width="3.5" stroke-linecap="round" stroke-linejoin="round" xmlns="http://www.w3.org/2000/svg" /></symbol>
    <style>
      text { font-family: "Segoe UI", Helvetica, Arial, sans-serif; fill: #142342; }
      .page-title { font-size: 58px; font-weight: 750; letter-spacing: 1px; }
      .subtitle { font-size: 26px; font-weight: 400; fill: #344969; }
      .panel { fill: #ffffff; stroke: #a9b9d2; stroke-width: 1.5; }
      .panel-header { fill: #f3f7fd; stroke: #a9b9d2; stroke-width: 1.5; }
      .step-circle { fill: #2f66c7; }
      .step-number { fill: #ffffff; font-size: 21px; font-weight: 750; dominant-baseline: middle; }
      .panel-title { font-size: 20px; font-weight: 700; dominant-baseline: middle; }
      .panel-title-compact { font-size: 19px; font-weight: 700; dominant-baseline: middle; }
      .chip { fill: #fbfdff; stroke: #86a8df; stroke-width: 1.5; }
      .chip-label { font-size: 17px; font-weight: 450; dominant-baseline: middle; }
      .kernel-card { fill: #f8fbff; stroke: #86a8df; stroke-width: 1.5; }
      .kernel-label { font-size: 16px; font-weight: 650; dominant-baseline: middle; }
      .caption { font-size: 15px; fill: #50627e; }
      .flow-arrow { stroke: #173b73; stroke-width: 4; marker-end: url(#arrow); }
      .lane-arrow { stroke: #173b73; stroke-width: 3; marker-end: url(#arrow); }
      .mcr-outline { fill: #ffffff; stroke: #2f66c7; stroke-width: 2; }
      .mcr-header { fill: #2f66c7; }
      .mcr-title { fill: #ffffff; font-size: 18px; font-weight: 700; }
      .mcr-subtitle { fill: #dce8ff; font-size: 15px; font-weight: 650; }
      .bullet { fill: #2f66c7; }
      .bullet-label { font-size: 16px; fill: #243654; dominant-baseline: middle; }
      .state-label { font-size: 19px; font-weight: 700; dominant-baseline: middle; }
      .lane-title { font-size: 20px; font-weight: 700; }
      .lane-node { fill: #ffffff; stroke: #9aa9bf; stroke-width: 1.5; }
      .lane-key { fill: #eef4ff; stroke: #5d87d5; stroke-width: 1.6; }
      .lane-label { font-size: 15px; font-weight: 650; dominant-baseline: middle; }
      .goal-title { font-size: 18px; font-weight: 700; fill: #18355f; }
      .goal-copy { font-size: 17px; fill: #243654; }
    </style>
  </defs>
  <rect width="1880" height="1050" fill="#fbfcfe"/>
    <text x="940" y="81" class="page-title" text-anchor="middle">Merriv</text>
    <text x="940" y="132" class="subtitle" text-anchor="middle">Vendor-neutral release evidence for deployable AI models</text>
    <rect x="24" y="190" width="320" height="535" rx="13" class="panel"/>
    <path d="M37 190 H331 Q344 190 344 203 V256 H24 V203 Q24 190 37 190 Z" class="panel-header"/>
    <circle cx="64" cy="223" r="22" class="step-circle"/>
    <text x="64" y="224" class="step-number" text-anchor="middle">1</text>
    <text x="102" y="224" class="panel-title" text-anchor="start">Producers / Inputs</text>
    <rect x="400" y="190" width="390" height="535" rx="13" class="panel"/>
    <path d="M413 190 H777 Q790 190 790 203 V256 H400 V203 Q400 190 413 190 Z" class="panel-header"/>
    <circle cx="440" cy="223" r="22" class="step-circle"/>
    <text x="440" y="224" class="step-number" text-anchor="middle">2</text>
    <text x="478" y="224" class="panel-title" text-anchor="start">Merriv Evidence Kernel</text>
    <rect x="840" y="190" width="300" height="535" rx="13" class="panel"/>
    <path d="M853 190 H1127 Q1140 190 1140 203 V256 H840 V203 Q840 190 853 190 Z" class="panel-header"/>
    <circle cx="880" cy="223" r="22" class="step-circle"/>
    <text x="880" y="224" class="step-number" text-anchor="middle">3</text>
    <text x="918" y="224" class="panel-title" text-anchor="start">Model Change Report</text>
    <rect x="1190" y="190" width="340" height="535" rx="13" class="panel"/>
    <path d="M1203 190 H1517 Q1530 190 1530 203 V256 H1190 V203 Q1190 190 1203 190 Z" class="panel-header"/>
    <circle cx="1230" cy="223" r="22" class="step-circle"/>
    <text x="1230" y="224" class="step-number" text-anchor="middle">4</text>
    <text x="1268" y="224" class="panel-title-compact" text-anchor="start">Consumers / Integrations</text>
    <rect x="1580" y="190" width="276" height="535" rx="13" class="panel"/>
    <path d="M1593 190 H1843 Q1856 190 1856 203 V256 H1580 V203 Q1580 190 1593 190 Z" class="panel-header"/>
    <circle cx="1620" cy="223" r="22" class="step-circle"/>
    <text x="1620" y="224" class="step-number" text-anchor="middle">5</text>
    <text x="1658" y="224" class="panel-title" text-anchor="start">Release Decision</text>
    <rect x="42" y="280" width="284" height="58" rx="8" class="chip"/>
    <use href="#icon-model_network" x="56" y="292" width="34" height="34"/>
    <text x="104" y="310" class="chip-label" text-anchor="start">PyTorch / HF model</text>
    <rect x="42" y="348" width="284" height="58" rx="8" class="chip"/>
    <use href="#icon-globe" x="56" y="360" width="34" height="34"/>
    <text x="104" y="378" class="chip-label" text-anchor="start">API endpoint</text>
    <rect x="42" y="416" width="284" height="58" rx="8" class="chip"/>
    <use href="#icon-artifact_cube" x="56" y="428" width="34" height="34"/>
    <text x="104" y="446" class="chip-label" text-anchor="start">ONNX artifact</text>
    <rect x="42" y="484" width="284" height="58" rx="8" class="chip"/>
    <use href="#icon-speedometer" x="56" y="496" width="34" height="34"/>
    <text x="104" y="514" class="chip-label" text-anchor="start">TensorRT engine</text>
    <rect x="42" y="552" width="284" height="58" rx="8" class="chip"/>
    <use href="#icon-bar_chart" x="56" y="564" width="34" height="34"/>
    <text x="104" y="582" class="chip-label" text-anchor="start">Polygraphy evidence</text>
    <rect x="42" y="620" width="284" height="58" rx="8" class="chip"/>
    <use href="#icon-database" x="56" y="632" width="34" height="34"/>
    <text x="104" y="650" class="chip-label" text-anchor="start">MLflow registry</text>
    <rect x="420" y="280" width="165" height="118" rx="10" class="kernel-card"/>
    <use href="#icon-scales" x="478" y="295" width="49" height="49"/>
    <text x="502.5" y="371" class="kernel-label" text-anchor="middle">Artifact diff</text>
    <rect x="605" y="280" width="165" height="118" rx="10" class="kernel-card"/>
    <use href="#icon-waveform" x="663" y="295" width="49" height="49"/>
    <text x="687.5" y="371" class="kernel-label" text-anchor="middle">Numerical diff</text>
    <rect x="420" y="414" width="165" height="118" rx="10" class="kernel-card"/>
    <use href="#icon-shield_check" x="478" y="429" width="49" height="49"/>
    <text x="502.5" y="505" class="kernel-label" text-anchor="middle">Contract checks</text>
    <rect x="605" y="414" width="165" height="118" rx="10" class="kernel-card"/>
    <use href="#icon-statistics" x="663" y="429" width="49" height="49"/>
    <text x="687.5" y="505" class="kernel-label" text-anchor="middle">Paired statistics</text>
    <rect x="420" y="548" width="165" height="118" rx="10" class="kernel-card"/>
    <use href="#icon-gear" x="478" y="563" width="49" height="49"/>
    <text x="502.5" y="639" class="kernel-label" text-anchor="middle">Policy engine</text>
    <rect x="605" y="548" width="165" height="118" rx="10" class="kernel-card"/>
    <use href="#icon-bisect_branch" x="663" y="563" width="49" height="49"/>
    <text x="687.5" y="639" class="kernel-label" text-anchor="middle">Bisect</text>
    <text x="595" y="698" class="caption" text-anchor="middle">Compare → quantify → gate → locate</text>
    <rect x="860" y="280" width="260" height="400" rx="18" class="mcr-outline"/>
    <path d="M878 280 H1102 Q1120 280 1120 298 V374 H860 V298 Q860 280 878 280 Z" class="mcr-header"/>
    <rect x="876" y="297" width="58" height="58" rx="7" fill="#ffffff"/>
    <use href="#icon-document_mcr" x="885" y="306" width="40" height="40"/>
    <text x="946" y="317" class="mcr-title" text-anchor="start">Model Change</text>
    <text x="946" y="347" class="mcr-subtitle" text-anchor="start">Report (schema 0.4)</text>
    <circle cx="889" cy="410" r="5" class="bullet"/>
    <text x="912" y="411" class="bullet-label" text-anchor="start">content identity</text>
    <circle cx="889" cy="460" r="5" class="bullet"/>
    <text x="912" y="461" class="bullet-label" text-anchor="start">evidence sets</text>
    <circle cx="889" cy="510" r="5" class="bullet"/>
    <text x="912" y="511" class="bullet-label" text-anchor="start">decision semantics</text>
    <circle cx="889" cy="560" r="5" class="bullet"/>
    <text x="912" y="561" class="bullet-label" text-anchor="start">portable bundle</text>
    <circle cx="889" cy="610" r="5" class="bullet"/>
    <text x="912" y="611" class="bullet-label" text-anchor="start">independent verification</text>
    <rect x="1210" y="290" width="300" height="60" rx="8" class="chip"/>
    <use href="#icon-ci_nodes" x="1226" y="302" width="36" height="36"/>
    <text x="1278" y="321" class="chip-label" text-anchor="start">CI / GitHub Actions</text>
    <rect x="1210" y="364" width="300" height="60" rx="8" class="chip"/>
    <use href="#icon-gear" x="1226" y="376" width="36" height="36"/>
    <text x="1278" y="395" class="chip-label" text-anchor="start">Release controller</text>
    <rect x="1210" y="438" width="300" height="60" rx="8" class="chip"/>
    <use href="#icon-database" x="1226" y="450" width="36" height="36"/>
    <text x="1278" y="469" class="chip-label" text-anchor="start">MLflow consumer</text>
    <rect x="1210" y="512" width="300" height="60" rx="8" class="chip"/>
    <use href="#icon-shield_check" x="1226" y="524" width="36" height="36"/>
    <text x="1278" y="543" class="chip-label" text-anchor="start">Audit / governance</text>
    <rect x="1210" y="586" width="300" height="60" rx="8" class="chip"/>
    <use href="#icon-people" x="1226" y="598" width="36" height="36"/>
    <text x="1278" y="617" class="chip-label" text-anchor="start">Third-party verifiers</text>
    <rect x="1600" y="295" width="236" height="64" rx="9" fill="#f3faef" stroke="#75a962" stroke-width="1.5"/>
    <use href="#icon-pass" x="1616" y="307" width="40" height="40"/>
    <text x="1746" y="328" class="state-label" text-anchor="middle" style="fill:#4f8739">PASS</text>
    <rect x="1600" y="374" width="236" height="64" rx="9" fill="#fff8ed" stroke="#e8a84c" stroke-width="1.5"/>
    <use href="#icon-warn" x="1616" y="386" width="40" height="40"/>
    <text x="1746" y="407" class="state-label" text-anchor="middle" style="fill:#c77b19">WARN</text>
    <rect x="1600" y="453" width="236" height="64" rx="9" fill="#fff1f1" stroke="#d95d5d" stroke-width="1.5"/>
    <use href="#icon-block" x="1616" y="465" width="40" height="40"/>
    <text x="1746" y="486" class="state-label" text-anchor="middle" style="fill:#b63e3e">BLOCK</text>
    <rect x="1600" y="532" width="236" height="64" rx="9" fill="#fff4f2" stroke="#df7565" stroke-width="1.5"/>
    <use href="#icon-error" x="1616" y="544" width="40" height="40"/>
    <text x="1746" y="565" class="state-label" text-anchor="middle" style="fill:#bd4838">ERROR</text>
    <line x1="1608" y1="620" x2="1828" y2="620" stroke="#b7c2d2" stroke-width="1.5"/>
    <text x="1718" y="662" class="caption" text-anchor="middle">ship / review / stop / fix</text>
    <line x1="354" y1="457" x2="390" y2="457" class="flow-arrow"/>
    <line x1="800" y1="457" x2="830" y2="457" class="flow-arrow"/>
    <line x1="1150" y1="457" x2="1180" y2="457" class="flow-arrow"/>
    <line x1="1540" y1="457" x2="1570" y2="457" class="flow-arrow"/>
    <rect x="24" y="775" width="1400" height="250" rx="13" class="panel"/>
    <text x="48" y="816" class="lane-title" text-anchor="start">NVIDIA vertical example</text>
    <line x1="44" y1="837" x2="1404" y2="837" stroke="#d2dceb"/>
    <rect x="44" y="860" width="140" height="112" rx="9" class="lane-node"/>
    <use href="#icon-model_network" x="93" y="874" width="42" height="42"/>
    <text x="114" y="944" class="lane-label" text-anchor="middle">FP16 model</text>
    <rect x="220" y="860" width="180" height="112" rx="9" class="lane-node"/>
    <use href="#icon-sliders" x="289" y="874" width="42" height="42"/>
    <text x="310" y="938" class="lane-label" text-anchor="middle">ModelOpt /</text>
    <text x="310" y="957" class="lane-label" text-anchor="middle">quantization</text>
    <rect x="436" y="860" width="120" height="112" rx="9" class="lane-node"/>
    <use href="#icon-artifact_cube" x="475" y="874" width="42" height="42"/>
    <text x="496" y="944" class="lane-label" text-anchor="middle">ONNX</text>
    <rect x="592" y="860" width="140" height="112" rx="9" class="lane-node"/>
    <use href="#icon-play_triangle" x="641" y="874" width="42" height="42"/>
    <text x="662" y="944" class="lane-label" text-anchor="middle">TensorRT</text>
    <rect x="768" y="860" width="150" height="112" rx="9" class="lane-node"/>
    <use href="#icon-bar_chart" x="822" y="874" width="42" height="42"/>
    <text x="843" y="944" class="lane-label" text-anchor="middle">Polygraphy</text>
    <rect x="954" y="860" width="130" height="112" rx="9" class="lane-key"/>
    <text x="1019" y="918" class="lane-label" text-anchor="middle">Merriv</text>
    <rect x="1120" y="860" width="110" height="112" rx="9" class="lane-key"/>
    <use href="#icon-document_mcr" x="1154" y="874" width="42" height="42"/>
    <text x="1175" y="944" class="lane-label" text-anchor="middle">Report</text>
    <rect x="1266" y="860" width="120" height="112" rx="9" class="lane-node"/>
    <use href="#icon-shield_check" x="1305" y="874" width="42" height="42"/>
    <text x="1326" y="944" class="lane-label" text-anchor="middle">Gate</text>
    <line x1="192" y1="916" x2="210" y2="916" class="lane-arrow"/>
    <line x1="408" y1="916" x2="426" y2="916" class="lane-arrow"/>
    <line x1="564" y1="916" x2="582" y2="916" class="lane-arrow"/>
    <line x1="740" y1="916" x2="758" y2="916" class="lane-arrow"/>
    <line x1="926" y1="916" x2="944" y2="916" class="lane-arrow"/>
    <line x1="1092" y1="916" x2="1110" y2="916" class="lane-arrow"/>
    <line x1="1238" y1="916" x2="1256" y2="916" class="lane-arrow"/>
    <rect x="1460" y="775" width="396" height="250" rx="13" fill="#ffffff" stroke="#5d7fb8" stroke-width="2" stroke-dasharray="8 7"/>
    <use href="#icon-target" x="1492" y="856" width="74" height="74"/>
    <text x="1590" y="871" class="goal-title" text-anchor="start">Goal: make every</text>
    <text x="1590" y="911" class="goal-copy" text-anchor="start">model change reviewable</text>
    <text x="1590" y="947" class="goal-copy" text-anchor="start">before it ships.</text>
</svg>
